<?xml version="1.0" encoding="utf-8" standalone="no"?>
<!DOCTYPE svg PUBLIC "-//W3C//DTD SVG 1.1//EN"
  "http://www.w3.org/Graphics/SVG/1.1/DTD/svg11.dtd">
<svg xmlns:xlink="http://www.w3.org/1999/xlink" width="357.12pt" height="266.112pt" viewBox="0 0 357.12 266.112" xmlns="http://www.w3.org/2000/svg" version="1.1">
 <metadata>
  <rdf:RDF xmlns:dc="http://purl.org/dc/elements/1.1/" xmlns:cc="http://creativecommons.org/ns#" xmlns:rdf="http://www.w3.org/1999/02/22-rdf-syntax-ns#">
   <cc:Work>
    <dc:type rdf:resource="http://purl.org/dc/dcmitype/StillImage"/>
    <dc:date>2025-02-20T14:17:34.151021</dc:date>
    <dc:format>image/svg+xml</dc:format>
    <dc:creator>
     <cc:Agent>
      <dc:title>Matplotlib v3.10.0, https://matplotlib.org/</dc:title>
     </cc:Agent>
    </dc:creator>
   </cc:Work>
  </rdf:RDF>
 </metadata>
 <defs>
  <style type="text/css">*{stroke-linejoin: round; stroke-linecap: butt}</style>
 </defs>
 <g id="figure_1">
  <g id="patch_1">
   <path d="M 0 266.112 
L 357.12 266.112 
L 357.12 0 
L 0 0 
L 0 266.112 
z
" style="fill: none"/>
  </g>
  <g id="axes_1">
   <g id="matplotlib.axis_1"/>
   <g id="matplotlib.axis_2"/>
   <g id="line2d_1">
    <path d="M 340.887273 133.056 
L 340.559396 125.371811 
L 339.577122 117.71884 
L 337.94451 110.128168 
L 335.668304 102.630606 
L 332.7579 95.256562 
L 329.225297 88.035911 
L 325.085041 80.997866 
L 320.354155 74.170857 
L 315.052056 67.582414 
L 309.200465 61.259052 
L 302.823304 55.22617 
L 295.946591 49.507942 
L 288.598317 44.127235 
L 280.808329 39.105514 
L 272.608194 34.462766 
L 264.031069 30.21743 
L 255.111562 26.386326 
L 245.885589 22.984605 
L 236.390229 20.025692 
L 226.663578 17.521244 
L 216.744601 15.481112 
L 206.672982 13.913312 
L 196.488975 12.823994 
L 186.233247 12.217432 
L 175.946735 12.096 
L 165.670488 12.460176 
L 155.445516 13.308532 
L 145.312642 14.637742 
L 135.312345 16.442594 
L 125.484612 18.716001 
L 115.868786 21.449027 
L 106.503418 24.630912 
L 97.426112 28.249112 
L 88.673385 32.289332 
L 80.280517 36.735579 
L 72.281406 41.570217 
L 64.708434 46.774023 
L 57.592323 52.326263 
L 50.962007 58.20476 
L 44.844508 64.385983 
L 39.264807 70.845132 
L 34.245741 77.556239 
L 29.807891 84.492266 
L 25.969487 91.62522 
L 22.746323 98.926263 
L 20.151679 106.365836 
L 18.196261 113.913783 
L 16.888142 121.539476 
L 16.232727 129.211953 
L 16.232727 136.900047 
L 16.888142 144.572524 
L 18.196261 152.198217 
L 20.151679 159.746164 
L 22.746323 167.185737 
L 25.969487 174.48678 
L 29.807891 181.619734 
L 34.245741 188.555761 
L 39.264807 195.266868 
L 44.844508 201.726017 
L 50.962007 207.90724 
L 57.592323 213.785737 
L 64.708434 219.337977 
L 72.281406 224.541783 
L 80.280517 229.376421 
L 88.673385 233.822668 
L 97.426112 237.862888 
L 106.503418 241.481088 
L 115.868786 244.662973 
L 125.484612 247.395999 
L 135.312345 249.669406 
L 145.312642 251.474258 
L 155.445516 252.803468 
L 165.670488 253.651824 
L 175.946735 254.016 
L 186.233247 253.894568 
L 196.488975 253.288006 
L 206.672982 252.198688 
L 216.744601 250.630888 
L 226.663578 248.590756 
L 236.390229 246.086308 
L 245.885589 243.127395 
L 255.111562 239.725674 
L 264.031069 235.89457 
L 272.608194 231.649234 
L 280.808329 227.006486 
L 288.598317 221.984765 
L 295.946591 216.604058 
L 302.823304 210.88583 
L 309.200465 204.852948 
L 315.052056 198.529586 
L 320.354155 191.941143 
L 325.085041 185.114134 
L 329.225297 178.076089 
L 332.7579 170.855438 
L 335.668304 163.481394 
L 337.94451 155.983832 
L 339.577122 148.39316 
L 340.559396 140.740189 
L 340.887273 133.056 
" clip-path="url(#pe5c40ebfd5)" style="fill: none; stroke: #1f77b4; stroke-width: 1.5; stroke-linecap: square"/>
   </g>
  </g>
 </g>
 <defs>
  <clipPath id="pe5c40ebfd5">
   <rect x="0" y="-0" width="357.12" height="266.112"/>
  </clipPath>
 </defs>
</svg>
